<svg width="335" height="201" viewBox="0 0 335 201" fill="none" xmlns="http://www.w3.org/2000/svg">
<g style="mix-blend-mode:color-dodge">
<path fill-rule="evenodd" clip-rule="evenodd" d="M14.7023 140.544C13.2699 137.935 9.35572 138.562 8.81113 141.489L0.592819 185.647C-0.377209 190.859 5.10159 194.886 9.78662 192.405L35.3123 178.885L46.2222 198.759C47.6546 201.368 51.5686 200.74 52.1133 197.814L60.3315 153.656C61.3014 148.444 55.8227 144.417 51.1378 146.898L25.4436 160.506L14.7023 140.544ZM226.582 79.1721L228.4 82.6049L221.029 86.5092L199.091 45.0878L206.576 41.1232L215.242 57.4857C215.439 54.8175 217.555 51.3527 221.727 49.143C229.955 44.7849 238.062 48.623 242.486 56.9759C247.001 65.5005 245.107 74.6354 237.106 78.873C233.22 80.9312 229.34 80.7886 226.582 79.1721ZM232.186 72.7609C236.072 70.7027 237.643 66.208 234.915 61.0589C232.188 55.9099 227.618 54.7406 223.732 56.7988C219.904 58.8264 218.189 63.3244 220.916 68.4735C223.613 73.5654 228.358 74.7885 232.186 72.7609ZM184.451 96.0658C186.784 100.471 192.592 102.596 198.593 99.4183C202.763 97.2095 204.419 93.8416 204.665 90.8539C205.241 91.9409 206.174 93.425 206.739 94.0779L213.711 90.3857C213.024 89.5039 211.793 87.5918 211.005 86.1043L203.672 72.259C200.672 66.5951 194.691 63.3161 185.777 68.0371C178.234 72.0324 176.752 79.0443 178.629 83.6914L186.129 81.5506C185.055 78.9693 185.762 75.884 189.076 74.1291C192.276 72.4338 194.698 73.2759 195.758 75.2783C196.273 76.2509 196.184 77.324 194.705 78.4004L188.336 83.0922C184.014 86.2605 181.784 91.0311 184.451 96.0658ZM197.192 92.9072C194.735 94.2083 192.686 93.2423 191.808 91.5832C190.656 89.4091 191.623 87.505 193.415 86.1896L199.243 81.8577L199.91 83.1163C202.546 88.0938 200.392 91.2122 197.192 92.9072ZM89.0857 146.354C91.1252 149.377 96.9484 153.326 105.406 148.846C112.777 144.942 113.836 138.374 111.412 133.797C109.23 129.678 104.642 127.786 98.4932 129.577L94.0383 130.838C92.3441 131.369 90.8612 131.055 90.1339 129.682C89.2855 128.08 90.249 126.031 92.2493 124.972C95.449 123.277 97.7701 124.758 98.8777 126.296L104.463 121.507C102.514 118.656 97.1316 114.987 89.1317 119.224C83.0743 122.432 80.8293 128.969 83.4958 134.004C85.5866 137.951 89.7705 139.911 95.8355 138.237L100.005 137.128C102.418 136.436 103.821 137.012 104.488 138.27C105.276 139.758 104.772 141.709 102.258 143.041C98.9438 144.796 96.1954 143.614 94.8426 141.474L89.0857 146.354ZM140.154 129.344L147.411 125.5C146.782 124.588 145.58 122.734 144.428 120.559L132.217 97.5031L124.616 101.529L133.282 117.891C135.01 121.152 134.279 124.47 130.908 126.255C127.365 128.131 124.431 126.462 122.765 123.315L114.159 107.067L106.559 111.092L115.983 128.885C119.225 135.007 125.747 137.926 132.547 134.325C135.518 132.751 138.171 129.881 138.319 126.432C138.925 127.576 139.736 128.832 140.154 129.344ZM161.381 114.584L168.593 128.2L160.993 132.225L140.328 93.2069L147.699 89.3029L149.517 92.7356C149.623 89.8956 151.766 86.3431 155.994 84.1037C164.223 79.7456 172.299 83.5272 176.723 91.88C181.237 100.405 179.257 109.512 171.314 113.719C167.428 115.777 163.752 115.746 161.381 114.584ZM166.508 107.547C170.394 105.488 171.934 100.937 169.267 95.9019C166.631 90.9245 162 89.6407 158.114 91.6989C154.229 93.7565 152.632 98.339 155.268 103.316C157.904 108.294 162.623 109.604 166.508 107.547ZM250.244 61.2192C252.578 65.6245 258.386 67.7498 264.386 64.572C268.557 62.3629 270.213 58.9947 270.459 56.0073C271.035 57.0943 271.968 58.5781 272.533 59.2313L279.504 55.5391C278.819 54.6567 277.587 52.7452 276.799 51.2577L269.466 37.4124C266.466 31.7485 260.485 28.4695 251.571 33.1909C244.028 37.1858 242.546 44.1974 244.422 48.8448L251.922 46.7043C250.848 44.1228 251.556 41.0374 254.869 39.2825C258.07 37.5872 260.492 38.4293 261.552 40.4317C262.067 41.4043 261.977 42.4777 260.498 43.5541L254.13 48.2456C249.808 51.4139 247.578 56.1845 250.244 61.2192ZM262.987 58.0603C260.529 59.3617 258.48 58.3957 257.602 56.7366C256.45 54.5625 257.417 52.6584 259.209 51.343L265.037 47.0111L265.703 48.2697C268.34 53.2472 266.186 56.3656 262.987 58.0603ZM296.592 47.5882C288.135 52.0672 282.311 48.1187 280.272 45.096L286.029 40.2155C287.382 42.3559 290.13 43.5382 293.444 41.7827C295.959 40.4509 296.462 38.4995 295.674 37.012C295.008 35.7534 293.605 35.1773 291.191 35.8699L287.022 36.979C280.956 38.6531 276.773 36.6928 274.682 32.7452C272.016 27.7107 274.26 21.174 280.318 17.9656C288.318 13.7286 293.7 17.3981 295.649 20.2486L290.065 25.0379C288.957 23.5002 286.636 22.0187 283.435 23.7139C281.435 24.7733 280.472 26.8217 281.32 28.4237C282.048 29.7968 283.53 30.1105 285.224 29.5796L289.679 28.3189C295.828 26.5274 300.415 28.4203 302.597 32.5396C305.021 37.1164 303.964 43.6839 296.592 47.5882ZM309.443 17.5583C308.251 14.8929 308.847 10.7675 312.79 8.67937C317.133 6.37941 320.416 8.15685 322.015 10.8996L309.443 17.5583ZM326.637 17.8292C327.056 20.8309 326.052 23.6336 322.509 25.51C318.737 27.5076 314.17 26.4833 312.03 22.8549L332.144 12.2019C332.129 12.1738 332.088 12.0803 332.027 11.9391C331.837 11.504 331.45 10.6165 331.015 9.79584C326.228 0.756397 318.089 -2.03929 309.403 2.56121C302.203 6.37435 298.665 15.721 303.422 24.7033C308.452 34.2004 318.191 36.1485 325.906 32.0624C332.82 28.4004 335.126 21.9776 333.98 16.3578L326.637 17.8292Z" fill="#969696"/>
</g>
</svg>
